<?xml version="1.0" encoding="iso-8859-1"?>
<!-- Generator: Adobe Illustrator 19.1.1, SVG Export Plug-In . SVG Version: 6.00 Build 0)  -->
<svg version="1.1" id="Layer_1" xmlns="http://www.w3.org/2000/svg" xmlns:xlink="http://www.w3.org/1999/xlink" x="0px" y="0px"
	 viewBox="0 0 48 48" enable-background="new 0 0 48 48" xml:space="preserve">
<path fill="#37474F" d="M35,37c-2.205,0-4-1.795-4-4s1.795-4,4-4s4,1.795,4,4S37.205,37,35,37z"/>
<path fill="none" stroke="#37474F" stroke-width="4" stroke-miterlimit="10" d="M25,15l6.131,10.999C32.278,25.363,33.598,25,35,25
	c4.411,0,8,3.589,8,8s-3.589,8-8,8c-2.52,0-4.772-1.172-6.24-2.999"/>
<path fill="none" stroke="#37474F" stroke-width="4" stroke-miterlimit="10" d="M35,33H22c0,4.411-3.589,8-8,8s-8-3.589-8-8
	c0-3.72,2.553-6.856,5.999-7.747"/>
<path fill="#E91E63" d="M14,37c-2.205,0-4-1.795-4-4s1.795-4,4-4s4,1.795,4,4S16.205,37,14,37z"/>
<path fill="#37474F" d="M25,19c-2.205,0-4-1.795-4-4s1.795-4,4-4s4,1.795,4,4S27.205,19,25,19z"/>
<path fill="none" stroke="#E91E63" stroke-width="4" stroke-miterlimit="10" d="M14,33l6.811-11.187C18.526,20.403,17,17.876,17,15
	c0-4.411,3.589-8,8-8s8,3.589,8,8c0,0.701-0.091,1.381-0.261,2.03"/>
</svg>
